<svg width="542" height="320" viewBox="0 0 542 320" fill="none" xmlns="http://www.w3.org/2000/svg">
<path d="M140.156 33.2255C140.44 58.2245 143.355 83.2115 145.178 108.205C145.403 110.616 145.409 112.809 145.415 115.221C145.427 119.607 145.657 123.988 149.395 127.054C158.381 125.933 167.148 124.376 176.133 122.6C176.351 122.382 176.57 122.382 176.794 122.376C180.302 122.364 184.258 126.745 184.27 130.029C184.276 133.101 182.313 135.736 180.344 137.936C172.256 146.727 158.217 146.109 147.481 148.327C143.318 149.217 139.156 150.98 135.205 150.993C132.576 150.999 130.376 150.126 128.183 149.036C124.881 143.346 125.081 137.202 124.627 130.629C123.251 107.605 123.409 84.3627 122.251 61.3388C121.791 52.7897 121.33 44.2345 120.646 35.9035C120.197 31.0806 119.083 25.8215 119.07 21.2167C119.052 13.9824 124.742 10.6742 131.103 10.656C141.41 10.6318 139.913 24.6642 140.149 31.2442L140.156 33.2255Z" fill="black"/>
<path d="M255.863 83.5751C248.659 95.6565 229.84 110.616 215.371 110.652C214.274 110.652 213.178 110.44 212.081 110.222C190.142 106.114 179.133 89.6946 179.078 67.9915C179.054 58.3397 180.987 44.3012 187.106 36.6124C195.849 25.6276 212.923 14.8367 227.398 14.7943C241.648 14.7579 249.331 16.0545 258.135 28.3117C262.758 34.6614 263.872 43.4287 263.897 51.0993C263.915 61.6297 261.54 74.3534 255.863 83.5751ZM205.101 43.362C200.072 48.4212 198.351 60.2664 198.363 66.8464C198.394 79.1217 205.222 89.634 218.6 89.5976C236.359 89.5491 245.744 71.5421 245.702 55.7586C245.69 50.9357 244.787 42.6047 240.612 39.3268C235.777 35.3946 229.852 33.4375 223.708 33.4497C217.794 33.4618 209.039 39.6237 205.101 43.362Z" fill="black"/>
<path d="M312.501 24.1068C308.236 48.7363 306.558 73.8445 303.801 98.7527C303.583 101.164 303.189 103.321 302.759 105.696C301.971 110.01 301.401 114.367 304.516 118.05C313.556 118.584 322.462 118.65 331.617 118.535C331.872 118.359 332.09 118.396 332.308 118.438C335.762 119.068 338.858 124.091 338.264 127.327C337.712 130.344 335.301 132.586 332.962 134.385C323.407 141.559 309.72 138.396 298.754 138.626C294.494 138.742 290.083 139.717 286.2 139.014C283.612 138.542 281.613 137.287 279.65 135.815C277.438 129.617 278.753 123.618 279.504 117.069C282.34 94.1843 286.721 71.3543 289.774 48.5061C290.877 40.0115 291.98 31.523 292.822 23.2041C293.258 18.3812 293.119 13.0069 293.949 8.47485C295.246 1.35563 301.444 -0.855869 307.703 0.283206C317.845 2.13118 313.816 15.6607 312.853 22.1741L312.501 24.1068Z" fill="black"/>
<path d="M455.673 99.2434C455.904 102.315 453.498 105.169 450.869 106.714C447.579 106.72 444.731 107.387 441.441 107.399C440.126 107.405 438.369 107.187 437.054 106.75C432.88 104.569 422.737 82.0058 416.145 77.2011C409.347 76.5649 402.767 76.3589 395.969 76.3771C391.364 76.3892 386.977 76.6194 382.373 76.6315C378.44 83.2176 374.296 89.5916 370.582 96.1776C368.837 99.4736 367.316 104.303 365.347 107.156C363.602 109.792 359.222 113.53 355.938 113.536C351.333 113.549 346.928 107.423 346.48 103.036C350.182 94.0388 355.423 85.9077 359.349 76.9103C365.668 61.5449 373.963 47.0459 379.84 31.4623C382.888 23.9978 386.59 14.3399 396.241 14.3156C397.338 14.3156 398.653 14.7458 399.756 14.9639C405.021 15.388 408.747 15.1578 411.389 20.6351C416.46 31.5835 422.628 42.532 428.578 53.2623C432.765 60.9268 436.951 69.0276 441.574 76.474C443.119 78.8855 445.094 81.2908 446.64 83.6962C449.724 88.5131 452.583 93.548 455.667 98.583L455.673 99.2434ZM388.244 57.758C390.879 59.0668 395.484 59.2728 398.332 59.2667C402.937 59.2546 407.541 58.8062 412.146 58.1337C409.28 52.6625 403.555 42.1503 398.938 38.212C394.787 43.047 389.328 51.6143 388.244 57.758Z" fill="black"/>
<path d="M152.57 190.636C154.546 191.945 156.521 192.599 158.938 192.593C163.979 192.581 169.02 190.812 174.061 190.8C177.351 190.794 181.078 191.436 183.059 194.502C183.507 196.913 183.949 199.543 183.956 201.954C183.968 205.898 183.101 210.067 179.381 212.272C171.268 213.393 162.719 214.95 154.388 214.969C154.17 216.283 154.176 217.598 154.176 218.919C154.176 219.798 154.855 227.911 154.636 228.129C155.109 241.507 156.024 254.879 156.933 268.033C157.611 275.927 158.29 283.816 158.308 291.493C158.326 298.727 152.201 304.01 144.966 304.029C139.707 304.041 136.193 302.956 134.206 297.479C133.103 294.195 133.442 258.011 133.43 252.092C133.182 241.343 132.715 230.164 131.37 219.422C130.492 219.204 129.831 219.204 128.959 219.21C123.918 219.222 118.877 220.331 113.83 220.567C109.449 221.015 105.062 222.342 100.458 222.354C98.2643 222.361 95.1924 221.712 93.4353 220.397C91.6783 219.089 89.9091 213.387 89.903 211.418C89.8909 207.25 91.8479 199.573 96.6648 198.464C104.117 196.689 111.788 196.453 119.464 196.428C122.536 196.422 125.82 195.974 128.668 194.653C131.285 188.728 126.426 176.676 136.072 175.555C138.701 175.331 141.767 174.665 144.621 174.659C152.08 174.641 151.874 179.906 151.886 185.383C151.904 187.128 152.128 189.103 152.57 190.636Z" fill="black"/>
<path d="M230.312 188.897C229.034 201.839 227.531 214.781 226.028 227.505C225.168 233.648 224.09 240.446 224.108 246.59C224.114 249.88 224.144 259.526 226.343 261.937C228.761 264.779 222.617 261.95 226.343 261.937C233.796 261.919 249.155 265.385 251.112 257.484C253.936 246.948 256.099 235.981 257.826 225.232C259.122 217.774 260.201 210.315 261.055 202.857C261.915 196.495 263.6 170.617 268.198 166.437C269.731 164.898 271.7 163.577 274.112 163.571C279.595 163.559 283.121 169.902 283.134 174.731C283.158 184.159 281.425 193.599 280.577 203.027C279.08 217.944 271.331 271.904 260.17 279.829C253.821 284.228 246.156 287.542 238.485 287.561C235.195 287.567 231.906 287.136 228.616 286.27C211.499 282.368 204.907 275.152 204.859 257.387C204.804 235.896 207.373 213.745 209.948 192.466C210.808 185.444 211.22 177.331 213.177 170.527C214.916 165.261 217.104 161.965 223.023 161.947C227.628 161.935 232.015 162.583 232.033 168.503C232.033 175.301 230.954 182.099 230.312 188.897Z" fill="black"/>
<path d="M332.902 316.686C329.836 318.013 326.77 319.994 323.262 320C308.351 320.042 311.568 293.28 311.544 283.628L311.502 266.524C311.447 245.033 311.605 223.106 310.235 201.621C310.005 197.016 309.557 192.411 309.545 188.031C309.533 183.426 309.951 175.967 313.671 172.889C315.422 171.35 319.142 168.709 321.553 168.703C323.965 168.697 325.286 170.011 327.261 171.102C341.536 179.397 355.374 188.134 365.717 201.481C377.156 215.708 384.003 234.109 384.051 252.304C384.142 288.045 362.251 302.574 332.902 316.686ZM329.539 204.644C329.575 219.337 330.933 234.242 330.969 249.153C330.981 252.661 330.769 256.169 330.781 259.677C330.811 271.516 331.502 283.58 331.975 295.419C348.188 292.087 363.693 267.045 363.657 251.48C363.608 232.182 345.559 206.577 329.745 196.307C329.739 198.943 329.527 201.79 329.539 204.644Z" fill="black"/>
<path d="M424.191 152.429C421.792 153.695 417.805 154.004 416.999 157.142C424.458 187.376 431.329 217.98 440.49 247.79C445.573 253.764 463.55 236.908 467.488 252.873L467.646 253.516C469.742 262.937 454.153 265.652 447.767 267.227C443.562 268.493 439.036 269.378 434.885 270.856C430.25 272.225 426.203 275.031 421.519 276.188C416.624 277.394 411.995 276.957 410.632 271.42C407.269 257.793 418.06 261.229 421.216 254.806C419.962 246.984 418.017 239.107 416.127 231.443C410.771 209.728 404.294 188.061 399.313 166.031C397.296 165.17 395.06 165.273 392.715 165.849C390.377 166.425 388.135 167.43 385.796 168.006C380.046 169.424 375.423 167.176 373.957 161.214C373.642 159.936 373.593 158.821 373.545 157.706C372.988 149.036 385.808 147.903 391.873 145.958C402.573 142.643 412.589 136.554 423.452 133.876C428.56 132.616 433.449 133.216 434.922 139.178C436.545 145.77 428.984 149.89 424.191 152.429Z" fill="black"/>
<path d="M533.07 194.568C525.866 206.65 507.047 221.609 492.578 221.646C491.482 221.646 490.385 221.433 489.288 221.215C467.349 217.107 456.34 200.688 456.285 178.985C456.261 169.333 458.194 155.294 464.313 147.606C473.056 136.621 490.13 125.83 504.605 125.788C518.856 125.751 526.538 127.048 535.342 139.305C539.965 145.655 541.08 154.422 541.104 162.092C541.128 172.617 538.747 185.341 533.07 194.568ZM482.308 154.355C477.279 159.414 475.559 171.26 475.571 177.84C475.601 190.115 482.43 200.627 495.808 200.591C513.566 200.542 522.952 182.535 522.909 166.752C522.897 161.929 521.994 153.598 517.82 150.32C512.985 146.388 507.059 144.431 500.915 144.443C495.002 144.455 486.247 150.617 482.308 154.355Z" fill="black"/>
<path d="M90.3149 147.975C80.7963 137.118 64.304 133.567 51.3197 140.19C47.2239 142.28 43.8551 145.134 41.2256 148.49C34.3123 156.331 31.0708 166.382 30.8345 175.974C30.6588 179.863 30.9618 183.796 32.1008 187.473C32.7491 189.57 33.555 191.43 34.7789 193.163C37.2933 197.561 41.4134 200.506 44.2368 204.426C46.0969 206.729 47.3329 209.988 48.2054 212.787C50.3442 219.695 48.9204 224.221 45.5698 229.31C43.6128 231.358 41.068 232.77 37.6569 233.103C27.7808 234.066 21.4917 225.093 21.5462 216.053C21.6129 204.426 3.89053 201.706 1.05496 213.278C-2.3865 227.311 2.70299 242.203 14.6996 250.522C24.2303 257.133 37.3357 257.896 47.8419 253.14H47.848C59.3659 249.571 70.7022 232.091 72.2411 222.985C73.0833 217.544 72.0836 212.103 70.5689 207.201C68.4543 200.379 64.4978 192.781 58.8267 187.825C55.7003 185.147 53.1556 182.105 51.962 178.252C50.9925 175.113 50.9865 171.756 51.6105 168.43C52.0528 166.831 52.0044 166.164 52.9435 164.637C53.6524 163.565 54.4037 162.656 55.2035 161.771C57.518 159.221 60.9352 157.869 64.3464 157.821C65.5582 157.803 66.7093 158.021 67.7818 158.403C70.6416 158.899 73.4408 160.317 75.5614 162.729C84.4317 172.847 99.1367 158.045 90.3149 147.975Z" fill="black"/>
</svg>
