<svg width="268" height="153" viewBox="0 0 268 153" fill="none" xmlns="http://www.w3.org/2000/svg">
<path d="M1 96.25V9.25C1 4.69365 4.69365 1 9.25 1C13.8063 1 17.5 4.69365 17.5 9.25V96.25C17.5 100.806 13.8063 104.5 9.25 104.5C4.69365 104.5 1 100.806 1 96.25Z" fill="#F8A5C2" stroke="#F8A5C2"/>
<path d="M148 96.25V9.25C148 4.69365 151.694 1 156.25 1C160.806 1 164.5 4.69365 164.5 9.25V96.25C164.5 100.806 160.806 104.5 156.25 104.5C151.694 104.5 148 100.806 148 96.25Z" fill="#F8A5C2" stroke="#F8A5C2"/>
<path fill-rule="evenodd" clip-rule="evenodd" d="M82.5 105C103.487 105 120.5 87.9868 120.5 67C120.5 46.0132 103.487 29 82.5 29C61.5132 29 44.5 46.0132 44.5 67C44.5 87.9868 61.5132 105 82.5 105ZM83 88C94.3218 88 103.5 78.8218 103.5 67.5C103.5 56.1782 94.3218 47 83 47C71.6782 47 62.5 56.1782 62.5 67.5C62.5 78.8218 71.6782 88 83 88Z" fill="#F8A5C2"/>
<path fill-rule="evenodd" clip-rule="evenodd" d="M240.021 103.665C236.829 104.535 233.469 105 230 105C209.013 105 192 87.9868 192 67C192 46.0132 209.013 29 230 29C250.987 29 268 46.0132 268 67C268 67.5014 267.99 68.0005 267.971 68.4972C267.99 68.7172 268 68.9389 268 69.1615V95.6118C268 100.244 264.244 104 259.612 104C256.7 104 254.142 102.519 252.639 100.276C252.554 100.132 252.481 99.992 252.417 99.8472C252 98.8973 252 97.7641 252 94.5C248.97 98.5405 245.486 101.901 240.021 103.665ZM251 67.5C251 78.8218 241.822 88 230.5 88C219.178 88 210 78.8218 210 67.5C210 56.1782 219.178 47 230.5 47C241.822 47 251 56.1782 251 67.5Z" fill="#F8A5C2"/>
<path d="M10.1913 132.271C11.3847 132.271 12.4892 132.449 13.5048 132.805C14.5204 133.16 15.3075 133.566 15.8661 134.023V138.289C15.2567 137.883 14.5077 137.489 13.619 137.108C12.7558 136.728 11.8544 136.537 10.9149 136.537C10.0009 136.537 9.27725 136.74 8.74405 137.146C8.21085 137.553 7.94424 138.035 7.94424 138.594C7.94424 139 8.09659 139.381 8.40128 139.736C8.70596 140.066 9.28995 140.358 10.1532 140.612L12.3241 141.336C15.244 142.199 16.704 143.888 16.704 146.401C16.704 147.595 16.3612 148.661 15.6757 149.601C15.0155 150.515 14.1142 151.238 12.9716 151.771C11.8544 152.305 10.6103 152.571 9.23917 152.571C7.94424 152.571 6.68741 152.368 5.46866 151.962C4.24991 151.556 3.32315 151.111 2.68839 150.629V146.401C3.17081 146.731 3.75479 147.049 4.44034 147.354C5.12589 147.658 5.83682 147.912 6.57315 148.115C7.30948 148.293 7.98233 148.382 8.59171 148.382C9.55655 148.382 10.2929 148.217 10.8007 147.887C11.3339 147.531 11.6005 147.036 11.6005 146.401C11.6005 145.919 11.3847 145.538 10.953 145.259C10.5214 144.979 9.88663 144.7 9.04874 144.421L6.68741 143.583C5.21475 143.101 4.19913 142.415 3.64053 141.526C3.08194 140.638 2.80264 139.584 2.80264 138.365C2.80264 137.146 3.10733 136.093 3.71671 135.204C4.35147 134.29 5.22745 133.579 6.34464 133.071C7.46182 132.538 8.74405 132.271 10.1913 132.271ZM57.622 127.168V132.767H62.954V136.804H57.622V145.106C57.622 145.97 57.8124 146.655 58.1933 147.163C58.5996 147.646 59.1962 147.887 59.9833 147.887C60.6689 147.887 61.2529 147.811 61.7353 147.658C62.2431 147.506 62.7128 147.29 63.1445 147.011V150.857C62.6621 151.34 62.0527 151.746 61.3164 152.076C60.6054 152.406 59.704 152.571 58.6123 152.571C56.8857 152.571 55.4765 152.025 54.3847 150.934C53.3183 149.816 52.7851 148.293 52.7851 146.363V136.804H49.3193V134.328C50.538 133.896 51.6552 133.084 52.6708 131.891C53.7119 130.697 54.5371 129.123 55.1464 127.168H57.622ZM114.917 132.767V144.23C114.917 145.932 114.536 147.404 113.774 148.648C113.013 149.867 111.972 150.807 110.651 151.467C109.356 152.127 107.884 152.457 106.233 152.457C104.558 152.457 103.06 152.127 101.739 151.467C100.444 150.807 99.416 149.867 98.6543 148.648C97.918 147.404 97.5498 145.932 97.5498 144.23V132.767H102.425L102.463 143.354C102.463 144.853 102.806 145.97 103.491 146.706C104.177 147.442 105.091 147.811 106.233 147.811C107.351 147.811 108.252 147.442 108.937 146.706C109.648 145.97 110.004 144.853 110.004 143.354V132.767H114.917ZM168.556 124.578V152H163.719V148.763C163.16 149.804 162.348 150.705 161.281 151.467C160.215 152.203 158.971 152.571 157.549 152.571C156 152.571 154.565 152.178 153.245 151.391C151.95 150.604 150.909 149.461 150.122 147.963C149.335 146.465 148.941 144.649 148.941 142.517C148.941 140.384 149.335 138.556 150.122 137.032C150.935 135.509 152.014 134.341 153.359 133.528C154.73 132.69 156.241 132.271 157.892 132.271C158.933 132.271 159.986 132.513 161.053 132.995C162.119 133.478 163.008 134.125 163.719 134.938V124.578H168.556ZM158.882 137.032C157.866 137.032 156.99 137.299 156.254 137.832C155.543 138.34 154.984 139.013 154.578 139.851C154.172 140.663 153.969 141.552 153.969 142.517C153.969 143.964 154.4 145.195 155.264 146.211C156.152 147.227 157.32 147.734 158.768 147.734C159.631 147.734 160.431 147.506 161.167 147.049C161.929 146.592 162.538 145.957 162.995 145.145C163.478 144.307 163.719 143.304 163.719 142.136V139.394C163.033 138.657 162.284 138.086 161.472 137.68C160.685 137.248 159.821 137.032 158.882 137.032ZM208.369 122.75C209.283 122.75 210.07 123.08 210.731 123.74C211.391 124.375 211.721 125.137 211.721 126.025C211.721 126.889 211.391 127.65 210.731 128.311C210.07 128.971 209.283 129.301 208.369 129.301C207.455 129.301 206.668 128.971 206.008 128.311C205.373 127.65 205.056 126.889 205.056 126.025C205.056 125.137 205.373 124.375 206.008 123.74C206.668 123.08 207.455 122.75 208.369 122.75ZM211.188 132.767V152H206.351V136.88H203.266V132.767H211.188ZM256.066 132.271C257.945 132.271 259.659 132.729 261.208 133.643C262.757 134.531 264.001 135.75 264.941 137.299C265.905 138.822 266.388 140.536 266.388 142.44C266.388 144.345 265.905 146.059 264.941 147.582C264.001 149.105 262.757 150.324 261.208 151.238C259.659 152.127 257.945 152.571 256.066 152.571C254.213 152.571 252.499 152.127 250.925 151.238C249.376 150.324 248.132 149.105 247.192 147.582C246.253 146.059 245.783 144.345 245.783 142.44C245.783 140.536 246.253 138.822 247.192 137.299C248.132 135.75 249.376 134.531 250.925 133.643C252.499 132.729 254.213 132.271 256.066 132.271ZM256.066 136.956C255.152 136.956 254.302 137.172 253.515 137.604C252.728 138.035 252.093 138.657 251.61 139.47C251.153 140.282 250.925 141.272 250.925 142.44C250.925 143.608 251.153 144.599 251.61 145.411C252.093 146.224 252.728 146.846 253.515 147.277C254.302 147.684 255.152 147.887 256.066 147.887C256.981 147.887 257.831 147.684 258.618 147.277C259.405 146.846 260.04 146.224 260.523 145.411C261.005 144.599 261.246 143.608 261.246 142.44C261.246 141.272 261.005 140.282 260.523 139.47C260.04 138.657 259.405 138.035 258.618 137.604C257.831 137.172 256.981 136.956 256.066 136.956Z" fill="#F8A5C2"/>
</svg>
