<?xml version="1.0" encoding="utf-8"?>
<svg version="1.1" id="logo" xmlns="http://www.w3.org/2000/svg" xmlns:xlink="http://www.w3.org/1999/xlink" x="0px" y="0px"
	 viewBox="0 0 1080 1080" fill="#f8a5c2" xml:space="preserve">
<g>
	<path d="M325.26,331.41c0.47,41.26,5.28,82.5,8.29,123.75c0.37,3.98,0.38,7.6,0.39,11.58c0.02,7.24,0.4,14.47,6.57,19.53
		c14.83-1.85,29.3-4.42,44.13-7.35c0.36-0.36,0.72-0.36,1.09-0.37c5.79-0.02,12.32,7.21,12.34,12.63c0.01,5.07-3.23,9.42-6.48,13.05
		c-13.35,14.51-36.52,13.49-54.24,17.15c-6.87,1.47-13.74,4.38-20.26,4.4c-4.34,0.01-7.97-1.43-11.59-3.23
		c-5.45-9.39-5.12-19.53-5.87-30.38c-2.27-38-2.01-76.36-3.92-114.36c-0.76-14.11-1.52-28.23-2.65-41.98
		c-0.74-7.96-2.58-16.64-2.6-24.24c-0.03-11.94,9.36-17.4,19.86-17.43c17.01-0.04,14.54,23.12,14.93,33.98L325.26,331.41z"/>
	<path d="M516.23,414.51c-11.89,19.94-42.95,44.63-66.83,44.69c-1.81,0-3.62-0.35-5.43-0.71c-36.21-6.78-54.38-33.88-54.47-69.7
		c-0.04-15.93,3.15-39.1,13.25-51.79c14.43-18.13,42.61-35.94,66.5-36.01c23.52-0.06,36.2,2.08,50.73,22.31
		c7.63,10.48,9.47,24.95,9.51,37.61C529.52,378.29,525.6,399.29,516.23,414.51z M432.45,348.14c-8.3,8.35-11.14,27.9-11.12,38.76
		c0.05,20.26,11.32,37.61,33.4,37.55c29.31-0.08,44.8-29.8,44.73-55.85c-0.02-7.96-1.51-21.71-8.4-27.12
		c-7.98-6.49-17.76-9.72-27.9-9.7C453.4,331.8,438.95,341.97,432.45,348.14z"/>
	<path d="M609.71,316.36c-7.04,40.65-9.81,82.09-14.36,123.2c-0.36,3.98-1.01,7.54-1.72,11.46c-1.3,7.12-2.24,14.31,2.9,20.39
		c14.92,0.88,29.62,0.99,44.73,0.8c0.42-0.29,0.78-0.23,1.14-0.16c5.7,1.04,10.81,9.33,9.83,14.67c-0.91,4.98-4.89,8.68-8.75,11.65
		c-15.77,11.84-38.36,6.62-56.46,7c-7.03,0.19-14.31,1.8-20.72,0.64c-4.27-0.78-7.57-2.85-10.81-5.28
		c-3.65-10.23-1.48-20.13-0.24-30.94c4.68-37.77,11.91-75.45,16.95-113.16c1.82-14.02,3.64-28.03,5.03-41.76
		c0.72-7.96,0.49-16.83,1.86-24.31c2.14-11.75,12.37-15.4,22.7-13.52c16.74,3.05,10.09,25.38,8.5,36.13L609.71,316.36z"/>
	<path d="M846.01,440.37c0.38,5.07-3.59,9.78-7.93,12.33c-5.43,0.01-10.13,1.11-15.56,1.13c-2.17,0.01-5.07-0.35-7.24-1.07
		c-6.89-3.6-23.63-40.84-34.51-48.77c-11.22-1.05-22.08-1.39-33.3-1.36c-7.6,0.02-14.84,0.4-22.44,0.42
		c-6.49,10.87-13.33,21.39-19.46,32.26c-2.88,5.44-5.39,13.41-8.64,18.12c-2.88,4.35-10.11,10.52-15.53,10.53
		c-7.6,0.02-14.87-10.09-15.61-17.33c6.11-14.85,14.76-28.27,21.24-43.12c10.43-25.36,24.12-49.29,33.82-75.01
		c5.03-12.32,11.14-28.26,27.07-28.3c1.81,0,3.98,0.71,5.8,1.07c8.69,0.7,14.84,0.32,19.2,9.36c8.37,18.07,18.55,36.14,28.37,53.85
		c6.91,12.65,13.82,26.02,21.45,38.31c2.55,3.98,5.81,7.95,8.36,11.92c5.09,7.95,9.81,16.26,14.9,24.57L846.01,440.37z
		 M734.72,371.9c4.35,2.16,11.95,2.5,16.65,2.49c7.6-0.02,15.2-0.76,22.8-1.87c-4.73-9.03-14.18-26.38-21.8-32.88
		C745.52,347.62,736.51,361.76,734.72,371.9z"/>
	<path d="M345.75,591.21c3.26,2.16,6.52,3.24,10.51,3.23c8.32-0.02,16.64-2.94,24.96-2.96c5.43-0.01,11.58,1.05,14.85,6.11
		c0.74,3.98,1.47,8.32,1.48,12.3c0.02,6.51-1.41,13.39-7.55,17.03c-13.39,1.85-27.5,4.42-41.25,4.45c-0.36,2.17-0.35,4.34-0.35,6.52
		c0,1.45,1.12,14.84,0.76,15.2c0.78,22.08,2.29,44.15,3.79,65.86c1.12,13.03,2.24,26.05,2.27,38.72
		c0.03,11.94-10.08,20.66-22.02,20.69c-8.68,0.02-14.48-1.77-17.76-10.81c-1.82-5.42-1.26-65.14-1.28-74.91
		c-0.41-17.74-1.18-36.19-3.4-53.92c-1.45-0.36-2.54-0.36-3.98-0.35c-8.32,0.02-16.64,1.85-24.97,2.24
		c-7.23,0.74-14.47,2.93-22.07,2.95c-3.62,0.01-8.69-1.06-11.59-3.23c-2.9-2.16-5.82-11.57-5.83-14.82
		c-0.02-6.88,3.21-19.55,11.16-21.38c12.3-2.93,24.96-3.32,37.63-3.36c5.07-0.01,10.49-0.75,15.19-2.93
		c4.32-9.78-3.7-29.67,12.22-31.52c4.34-0.37,9.4-1.47,14.11-1.48c12.31-0.03,11.97,8.66,11.99,17.7
		C344.65,585.42,345.02,588.68,345.75,591.21z"/>
	<path d="M474.06,588.34c-2.11,21.36-4.59,42.72-7.07,63.72c-1.42,10.14-3.2,21.36-3.17,31.5c0.01,5.43,0.06,21.35,3.69,25.33
		c3.99,4.69-6.15,0.02,0,0c12.3-0.03,37.65,5.69,40.88-7.35c4.66-17.39,8.23-35.49,11.08-53.23c2.14-12.31,3.92-24.62,5.33-36.93
		c1.42-10.5,4.2-53.21,11.79-60.11c2.53-2.54,5.78-4.72,9.76-4.73c9.05-0.02,14.87,10.45,14.89,18.42
		c0.04,15.56-2.82,31.14-4.22,46.7c-2.47,24.62-15.26,113.68-33.68,126.76c-10.48,7.26-23.13,12.73-35.79,12.76
		c-5.43,0.01-10.86-0.7-16.29-2.13c-28.25-6.44-39.13-18.35-39.21-47.67c-0.09-35.47,4.15-72.03,8.4-107.15
		c1.42-11.59,2.1-24.98,5.33-36.21c2.87-8.69,6.48-14.13,16.25-14.16c7.6-0.02,14.84,1.05,14.87,10.82
		C476.9,565.9,475.12,577.12,474.06,588.34z"/>
	<path d="M643.38,799.25c-5.06,2.19-10.12,5.46-15.91,5.47c-24.61,0.07-19.3-44.1-19.34-60.03l-0.07-28.23
		c-0.09-35.47,0.17-71.66-2.09-107.12c-0.38-7.6-1.12-15.2-1.14-22.43c-0.02-7.6,0.67-19.91,6.81-24.99
		c2.89-2.54,9.03-6.9,13.01-6.91c3.98-0.01,6.16,2.16,9.42,3.96c23.56,13.69,46.4,28.11,63.47,50.14
		c18.88,23.48,30.18,53.85,30.26,83.88C727.95,751.98,691.82,775.96,643.38,799.25z M637.83,614.33c0.06,24.25,2.3,48.85,2.36,73.46
		c0.02,5.79-0.33,11.58-0.31,17.37c0.05,19.54,1.19,39.45,1.97,58.99c26.76-5.5,52.35-46.83,52.29-72.52
		c-0.08-31.85-29.87-74.11-55.97-91.06C638.16,604.92,637.81,609.62,637.83,614.33z"/>
	<path d="M794.05,528.15c-3.96,2.09-10.54,2.6-11.87,7.78c12.31,49.9,23.65,100.41,38.77,149.61c8.39,9.86,38.06-17.96,44.56,8.39
		l0.26,1.06c3.46,15.55-22.27,20.03-32.81,22.63c-6.94,2.09-14.41,3.55-21.26,5.99c-7.65,2.26-14.33,6.89-22.06,8.8
		c-8.08,1.99-15.72,1.27-17.97-7.87c-5.55-22.49,12.26-16.82,17.47-27.42c-2.07-12.91-5.28-25.91-8.4-38.56
		c-8.84-35.84-19.53-71.6-27.75-107.96c-3.33-1.42-7.02-1.25-10.89-0.3c-3.86,0.95-7.56,2.61-11.42,3.56
		c-9.49,2.34-17.12-1.37-19.54-11.21c-0.52-2.11-0.6-3.95-0.68-5.79c-0.92-14.31,20.24-16.18,30.25-19.39
		c17.66-5.47,34.19-15.52,52.12-19.94c8.43-2.08,16.5-1.09,18.93,8.75C814.44,517.16,801.96,523.96,794.05,528.15z"/>
	<path d="M973.75,597.7c-11.89,19.94-42.95,44.63-66.83,44.69c-1.81,0-3.62-0.35-5.43-0.71c-36.21-6.78-54.38-33.88-54.47-69.7
		c-0.04-15.93,3.15-39.1,13.25-51.79c14.43-18.13,42.61-35.94,66.5-36.01c23.52-0.06,36.2,2.08,50.73,22.31
		c7.63,10.48,9.47,24.95,9.51,37.61C987.05,561.47,983.12,582.47,973.75,597.7z M889.97,531.33c-8.3,8.35-11.14,27.9-11.12,38.76
		c0.05,20.26,11.32,37.61,33.4,37.55c29.31-0.08,44.8-29.8,44.73-55.85c-0.02-7.96-1.51-21.71-8.4-27.12
		c-7.98-6.49-17.76-9.72-27.9-9.7C910.92,514.99,896.47,525.16,889.97,531.33z"/>
	<path d="M243,520.8c-15.71-17.92-42.93-23.78-64.36-12.85c-6.76,3.45-12.32,8.16-16.66,13.7c-11.41,12.94-16.76,29.53-17.15,45.36
		c-0.29,6.42,0.21,12.91,2.09,18.98c1.07,3.46,2.4,6.53,4.42,9.39c4.15,7.26,10.95,12.12,15.61,18.59c3.07,3.8,5.11,9.18,6.55,13.8
		c3.53,11.4,1.18,18.87-4.35,27.27c-3.23,3.38-7.43,5.71-13.06,6.26c-16.3,1.59-26.68-13.22-26.59-28.14
		c0.11-19.19-29.14-23.68-33.82-4.58c-5.68,23.16,2.72,47.74,22.52,61.47c15.73,10.91,37.36,12.17,54.7,4.32c0,0,0.01,0,0.01,0
		c19.01-5.89,37.72-34.74,40.26-49.77c1.39-8.98-0.26-17.96-2.76-26.05c-3.49-11.26-10.02-23.8-19.38-31.98
		c-5.16-4.42-9.36-9.44-11.33-15.8c-1.6-5.18-1.61-10.72-0.58-16.21c0.73-2.64,0.65-3.74,2.2-6.26c1.17-1.77,2.41-3.27,3.73-4.73
		c3.82-4.21,9.46-6.44,15.09-6.52c2-0.03,3.9,0.33,5.67,0.96c4.72,0.82,9.34,3.16,12.84,7.14C233.29,561.85,257.56,537.42,243,520.8
		z"/>
</g>
</svg>
